REM DIRINDEX 1\6,1\2\7,1\2\8,1\2\9,1\3\10,1\3\11,1\4\12,1\4\13,1\4\14,1\5\15,1\5\16,1\5\17
REM DIRNAME cjc040,folder01,folder02,folder03,folder04,folder05,folder06,folder07,folder08,folder09,folder10,folder11,folder12,folder13,folder14,folder15,folder16
TITLE ""
FILE "P2Q_j_1184-1197.mp3" MP3
  TRACK 01 AUDIO
    TITLE "12:cjc040_0296"
    INDEX 01 00:00:00
  TRACK 02 AUDIO
    TITLE "0:"
    INDEX 01 00:01:54
  TRACK 03 AUDIO
    TITLE "13:cjc040_0297"
    INDEX 01 00:02:32
  TRACK 04 AUDIO
    TITLE "0:"
    INDEX 01 00:03:74
  TRACK 05 AUDIO
    TITLE "14:cjc040_0298"
    INDEX 01 00:04:56
  TRACK 06 AUDIO
    TITLE "0:"
    INDEX 01 00:09:38
  TRACK 07 AUDIO
    TITLE "12:cjc040_0299"
    INDEX 01 00:10:18
  TRACK 08 AUDIO
    TITLE "0:"
    INDEX 01 00:11:74
  TRACK 09 AUDIO
    TITLE "13:cjc040_0300"
    INDEX 01 00:12:52
  TRACK 10 AUDIO
    TITLE "0:"
    INDEX 01 00:14:35
  TRACK 11 AUDIO
    TITLE "14:cjc040_0301"
    INDEX 01 00:15:13
  TRACK 12 AUDIO
    TITLE "0:"
    INDEX 01 00:20:65
  TRACK 13 AUDIO
    TITLE "12:cjc040_0302"
    INDEX 01 00:21:43
  TRACK 14 AUDIO
    TITLE "0:"
    INDEX 01 00:23:03
  TRACK 15 AUDIO
    TITLE "13:cjc040_0303"
    INDEX 01 00:23:59
  TRACK 16 AUDIO
    TITLE "0:"
    INDEX 01 00:25:05
  TRACK 17 AUDIO
    TITLE "14:cjc040_0304"
    INDEX 01 00:25:52
  TRACK 18 AUDIO
    TITLE "0:"
    INDEX 01 00:29:54
  TRACK 19 AUDIO
    TITLE "12:cjc040_0305"
    INDEX 01 00:30:36
  TRACK 20 AUDIO
    TITLE "0:"
    INDEX 01 00:32:05
  TRACK 21 AUDIO
    TITLE "13:cjc040_0306"
    INDEX 01 00:32:60
  TRACK 22 AUDIO
    TITLE "0:"
    INDEX 01 00:34:00
  TRACK 23 AUDIO
    TITLE "14:cjc040_0307"
    INDEX 01 00:34:51
  TRACK 24 AUDIO
    TITLE "0:"
    INDEX 01 00:37:71
  TRACK 25 AUDIO
    TITLE "12:cjc040_0308"
    INDEX 01 00:38:53
  TRACK 26 AUDIO
    TITLE "0:"
    INDEX 01 00:39:74
  TRACK 27 AUDIO
    TITLE "13:cjc040_0309"
    INDEX 01 00:40:52
  TRACK 28 AUDIO
    TITLE "0:"
    INDEX 01 00:42:02
  TRACK 29 AUDIO
    TITLE "14:cjc040_0310"
    INDEX 01 00:42:55
  TRACK 30 AUDIO
    TITLE "0:"
    INDEX 01 00:48:44
  TRACK 31 AUDIO
    TITLE "12:cjc040_0311"
    INDEX 01 00:49:27
  TRACK 32 AUDIO
    TITLE "0:"
    INDEX 01 00:51:09
  TRACK 33 AUDIO
    TITLE "13:cjc040_0312"
    INDEX 01 00:51:63
  TRACK 34 AUDIO
    TITLE "0:"
    INDEX 01 00:53:47
  TRACK 35 AUDIO
    TITLE "14:cjc040_0313"
    INDEX 01 00:54:27
  TRACK 36 AUDIO
    TITLE "0:"
    INDEX 01 01:02:20
  TRACK 37 AUDIO
    TITLE "12:cjc040_0314"
    INDEX 01 01:03:00
  TRACK 38 AUDIO
    TITLE "0:"
    INDEX 01 01:04:48
  TRACK 39 AUDIO
    TITLE "13:cjc040_0315"
    INDEX 01 01:05:26
  TRACK 40 AUDIO
    TITLE "0:"
    INDEX 01 01:06:30
  TRACK 41 AUDIO
    TITLE "14:cjc040_0316"
    INDEX 01 01:07:08
  TRACK 42 AUDIO
    TITLE "0:"
    INDEX 01 01:13:69
  TRACK 43 AUDIO
    TITLE "12:cjc040_0317"
    INDEX 01 01:14:45
  TRACK 44 AUDIO
    TITLE "0:"
    INDEX 01 01:16:09
  TRACK 45 AUDIO
    TITLE "13:cjc040_0318"
    INDEX 01 01:16:65
  TRACK 46 AUDIO
    TITLE "0:"
    INDEX 01 01:18:15
  TRACK 47 AUDIO
    TITLE "14:cjc040_0319"
    INDEX 01 01:18:68
  TRACK 48 AUDIO
    TITLE "0:"
    INDEX 01 01:24:53
  TRACK 49 AUDIO
    TITLE "12:cjc040_0320"
    INDEX 01 01:25:35
  TRACK 50 AUDIO
    TITLE "0:"
    INDEX 01 01:27:14
  TRACK 51 AUDIO
    TITLE "13:cjc040_0321"
    INDEX 01 01:27:67
  TRACK 52 AUDIO
    TITLE "0:"
    INDEX 01 01:29:74
  TRACK 53 AUDIO
    TITLE "14:cjc040_0322"
    INDEX 01 01:30:48
  TRACK 54 AUDIO
    TITLE "0:"
    INDEX 01 01:35:63
  TRACK 55 AUDIO
    TITLE "12:cjc040_0323"
    INDEX 01 01:36:41
  TRACK 56 AUDIO
    TITLE "0:"
    INDEX 01 01:38:18
  TRACK 57 AUDIO
    TITLE "13:cjc040_0324"
    INDEX 01 01:38:69
  TRACK 58 AUDIO
    TITLE "0:"
    INDEX 01 01:40:42
  TRACK 59 AUDIO
    TITLE "14:cjc040_0325"
    INDEX 01 01:41:12
  TRACK 60 AUDIO
    TITLE "0:"
    INDEX 01 01:45:08
  TRACK 61 AUDIO
    TITLE "12:cjc040_0326"
    INDEX 01 01:45:61
  TRACK 62 AUDIO
    TITLE "0:"
    INDEX 01 01:47:68
  TRACK 63 AUDIO
    TITLE "13:cjc040_0327"
    INDEX 01 01:48:52
  TRACK 64 AUDIO
    TITLE "0:"
    INDEX 01 01:50:35
  TRACK 65 AUDIO
    TITLE "14:cjc040_0328"
    INDEX 01 01:51:15
  TRACK 66 AUDIO
    TITLE "0:"
    INDEX 01 01:59:26
  TRACK 67 AUDIO
    TITLE "12:cjc040_0329"
    INDEX 01 02:00:16
  TRACK 68 AUDIO
    TITLE "0:"
    INDEX 01 02:01:68
  TRACK 69 AUDIO
    TITLE "13:cjc040_0330"
    INDEX 01 02:02:52
  TRACK 70 AUDIO
    TITLE "0:"
    INDEX 01 02:05:42
  TRACK 71 AUDIO
    TITLE "14:cjc040_0331"
    INDEX 01 02:06:18
  TRACK 72 AUDIO
    TITLE "0:"
    INDEX 01 02:10:65
  TRACK 73 AUDIO
    TITLE "12:cjc040_0332"
    INDEX 01 02:11:53
  TRACK 74 AUDIO
    TITLE "0:"
    INDEX 01 02:13:30
  TRACK 75 AUDIO
    TITLE "13:cjc040_0333"
    INDEX 01 02:14:08
  TRACK 76 AUDIO
    TITLE "0:"
    INDEX 01 02:15:74
  TRACK 77 AUDIO
    TITLE "14:cjc040_0334"
    INDEX 01 02:16:56
  TRACK 78 AUDIO
    TITLE "0:"
    INDEX 01 02:22:21
  TRACK 79 AUDIO
    TITLE "12:cjc040_0335"
    INDEX 01 02:23:01
  TRACK 80 AUDIO
    TITLE "0:"
    INDEX 01 02:24:38
  TRACK 81 AUDIO
    TITLE "13:cjc040_0336"
    INDEX 01 02:25:18
  TRACK 82 AUDIO
    TITLE "0:"
    INDEX 01 02:27:42
  TRACK 83 AUDIO
    TITLE "14:cjc040_0337"
    INDEX 01 02:28:16
  TRACK 84 AUDIO
    TITLE "0:"
    INDEX 01 02:34:38
